{
  "accessors": [
    {
      "bufferView": 2,
      "componentType": 5126,
      "count": 65532,
      "max": [
        11.776410102844238,
        12.002408981323242,
        15.103483200073242
      ],
      "min": [
        -0.15473198890686035,
        0.2831893563270569,
        1.0400447845458984
      ],
      "type": "VEC3"
    },
    {
      "bufferView": 2,
      "byteOffset": 786384,
      "componentType": 5126,
      "count": 65532,
      "max": [
        0.9998955726623535,
        0.9999786615371704,
        0.9999920129776001
      ],
      "min": [
        -0.9984326362609863,
        -0.999984622001648,
        -0.9831968545913696
      ],
      "type": "VEC3"
    },
    {
      "bufferView": 3,
      "componentType": 5126,
      "count": 65532,
      "max": [
        0.8200563192367554,
        1.0,
        1.0,
        1.0
      ],
      "min": [
        -0.7742149829864502,
        -0.9999999403953552,
        -1.0,
        -1.0
      ],
      "type": "VEC4"
    },
    {
      "bufferView": 3,
      "byteOffset": 1048512,
      "componentType": 5126,
      "count": 65532,
      "max": [
        0.9921568632125854,
        0.929411768913269,
        0.8078431487083435,
        1.0
      ],
      "min": [
        0.2980392277240753,
        0.3137255012989044,
        0.21568627655506134,
        1.0
      ],
      "type": "VEC4"
    },
    {
      "bufferView": 1,
      "componentType": 5126,
      "count": 65532,
      "max": [
        0.9988920092582703,
        0.9604489803314209
      ],
      "min": [
        0.0004879999905824661,
        0.000514000013936311
      ],
      "type": "VEC2"
    },
    {
      "bufferView": 0,
      "componentType": 5125,
      "count": 356952,
      "type": "SCALAR"
    },
    {
      "bufferView": 2,
      "byteOffset": 1572768,
      "componentType": 5126,
      "count": 65532,
      "max": [
        11.369359016418457,
        11.456856727600098,
        15.281953811645508
      ],
      "min": [
        -0.15959405899047852,
        -10.671786308288574,
        0.11953353881835938
      ],
      "type": "VEC3"
    },
    {
      "bufferView": 2,
      "byteOffset": 2359152,
      "componentType": 5126,
      "count": 65532,
      "max": [
        0.9966289401054382,
        0.9962823987007141,
        0.9999995231628418
      ],
      "min": [
        -0.9999915957450867,
        -0.9113298654556274,
        -0.9999958872795105
      ],
      "type": "VEC3"
    },
    {
      "bufferView": 3,
      "byteOffset": 2097024,
      "componentType": 5126,
      "count": 65532,
      "max": [
        0.8056020140647888,
        1.0,
        1.0,
        1.0
      ],
      "min": [
        -0.7809906005859375,
        -1.0,
        -0.9279024600982666,
        -1.0
      ],
      "type": "VEC4"
    },
    {
      "bufferView": 3,
      "byteOffset": 3145536,
      "componentType": 5126,
      "count": 65532,
      "max": [
        0.9921568632125854,
        0.9176470637321472,
        0.7607843279838562,
        1.0
      ],
      "min": [
        0.239215686917305,
        0.250980406999588,
        0.23137255012989044,
        1.0
      ],
      "type": "VEC4"
    },
    {
      "bufferView": 1,
      "byteOffset": 524256,
      "componentType": 5126,
      "count": 65532,
      "max": [
        0.9706969857215881,
        0.9936519861221313
      ],
      "min": [
        0.0004879999905824661,
        0.0006980000180192292
      ],
      "type": "VEC2"
    },
    {
      "bufferView": 0,
      "byteOffset": 1427808,
      "componentType": 5125,
      "count": 331860,
      "type": "SCALAR"
    },
    {
      "bufferView": 2,
      "byteOffset": 3145536,
      "componentType": 5126,
      "count": 65532,
      "max": [
        9.73837661743164,
        3.2194137573242188,
        15.27306842803955
      ],
      "min": [
        -0.15469932556152344,
        -12.953307151794434,
        0.11958694458007813
      ],
      "type": "VEC3"
    },
    {
      "bufferView": 2,
      "byteOffset": 3931920,
      "componentType": 5126,
      "count": 65532,
      "max": [
        0.8463093042373657,
        0.9999381899833679,
        0.9999995231628418
      ],
      "min": [
        -0.9473421573638916,
        -0.9999415278434753,
        -0.9999958872795105
      ],
      "type": "VEC3"
    },
    {
      "bufferView": 3,
      "byteOffset": 4194048,
      "componentType": 5126,
      "count": 65532,
      "max": [
        0.7374196648597717,
        1.0,
        1.0,
        1.0
      ],
      "min": [
        -0.9749042987823486,
        -1.0,
        -1.0,
        -1.0
      ],
      "type": "VEC4"
    },
    {
      "bufferView": 3,
      "byteOffset": 5242560,
      "componentType": 5126,
      "count": 65532,
      "max": [
        0.9882352948188782,
        0.9529411792755127,
        0.8705882430076599,
        1.0
      ],
      "min": [
        0.23529411852359772,
        0.250980406999588,
        0.23137255012989044,
        1.0
      ],
      "type": "VEC4"
    },
    {
      "bufferView": 1,
      "byteOffset": 1048512,
      "componentType": 5126,
      "count": 65532,
      "max": [
        0.9985759854316711,
        0.9545900225639343
      ],
      "min": [
        0.0004879999905824661,
        0.0005329999839887023
      ],
      "type": "VEC2"
    },
    {
      "bufferView": 0,
      "byteOffset": 2755248,
      "componentType": 5125,
      "count": 331944,
      "type": "SCALAR"
    },
    {
      "bufferView": 2,
      "byteOffset": 4718304,
      "componentType": 5126,
      "count": 65532,
      "max": [
        12.256390571594238,
        3.2221364974975586,
        15.28145980834961
      ],
      "min": [
        -0.14179468154907227,
        -12.955533981323242,
        1.8607158660888672
      ],
      "type": "VEC3"
    },
    {
      "bufferView": 2,
      "byteOffset": 5504688,
      "componentType": 5126,
      "count": 65532,
      "max": [
        0.9999996423721313,
        0.9994150400161743,
        0.9999933242797852
      ],
      "min": [
        -0.9999823570251465,
        -0.9999415278434753,
        -0.8842293620109558
      ],
      "type": "VEC3"
    },
    {
      "bufferView": 3,
      "byteOffset": 6291072,
      "componentType": 5126,
      "count": 65532,
      "max": [
        0.8756792545318604,
        1.0,
        1.0,
        1.0
      ],
      "min": [
        -0.8233680129051208,
        -1.0,
        -1.0,
        -1.0
      ],
      "type": "VEC4"
    },
    {
      "bufferView": 3,
      "byteOffset": 7339584,
      "componentType": 5126,
      "count": 65532,
      "max": [
        0.9921568632125854,
        0.9529411792755127,
        0.8705882430076599,
        1.0
      ],
      "min": [
        0.3294117748737335,
        0.33725491166114807,
        0.24705882370471954,
        1.0
      ],
      "type": "VEC4"
    },
    {
      "bufferView": 1,
      "byteOffset": 1572768,
      "componentType": 5126,
      "count": 65532,
      "max": [
        0.9985100030899048,
        0.9545900225639343
      ],
      "min": [
        0.00120599998626858,
        0.0006189999985508621
      ],
      "type": "VEC2"
    },
    {
      "bufferView": 0,
      "byteOffset": 4083024,
      "componentType": 5125,
      "count": 330066,
      "type": "SCALAR"
    },
    {
      "bufferView": 2,
      "byteOffset": 6291072,
      "componentType": 5126,
      "count": 65532,
      "max": [
        11.95493221282959,
        4.61718225479126,
        15.220878601074219
      ],
      "min": [
        -12.244396209716797,
        -11.279820442199707,
        2.167570114135742
      ],
      "type": "VEC3"
    },
    {
      "bufferView": 2,
      "byteOffset": 7077456,
      "componentType": 5126,
      "count": 65532,
      "max": [
        0.9999992251396179,
        0.9891754984855652,
        0.9999849796295166
      ],
      "min": [
        -0.9999980330467224,
        -0.9048609137535095,
        -0.910455584526062
      ],
      "type": "VEC3"
    },
    {
      "bufferView": 3,
      "byteOffset": 8388096,
      "componentType": 5126,
      "count": 65532,
      "max": [
        0.9080578088760376,
        1.0,
        1.0,
        1.0
      ],
      "min": [
        -0.7964712977409363,
        -1.0,
        -0.9999999403953552,
        -1.0
      ],
      "type": "VEC4"
    },
    {
      "bufferView": 3,
      "byteOffset": 9436608,
      "componentType": 5126,
      "count": 65532,
      "max": [
        0.9921568632125854,
        0.8980392217636108,
        0.7137255072593689,
        1.0
      ],
      "min": [
        0.33725491166114807,
        0.29019609093666077,
        0.1764705926179886,
        1.0
      ],
      "type": "VEC4"
    },
    {
      "bufferView": 1,
      "byteOffset": 2097024,
      "componentType": 5126,
      "count": 65532,
      "max": [
        0.9980279803276062,
        0.9304730296134949
      ],
      "min": [
        0.0004879999905824661,
        0.0009190000128000975
      ],
      "type": "VEC2"
    },
    {
      "bufferView": 0,
      "byteOffset": 5403288,
      "componentType": 5125,
      "count": 312414,
      "type": "SCALAR"
    },
    {
      "bufferView": 2,
      "byteOffset": 7863840,
      "componentType": 5126,
      "count": 65532,
      "max": [
        -0.0490717887878418,
        5.252285480499268,
        15.232535362243652
      ],
      "min": [
        -11.880913734436035,
        -12.9900541305542,
        0.10871124267578125
      ],
      "type": "VEC3"
    },
    {
      "bufferView": 2,
      "byteOffset": 8650224,
      "componentType": 5126,
      "count": 65532,
      "max": [
        0.9999440312385559,
        0.9999914765357971,
        0.9999994039535522
      ],
      "min": [
        -0.9999701380729675,
        -0.9999939799308777,
        -0.9999980330467224
      ],
      "type": "VEC3"
    },
    {
      "bufferView": 3,
      "byteOffset": 10485120,
      "componentType": 5126,
      "count": 65532,
      "max": [
        0.7360060214996338,
        1.0,
        1.0,
        1.0
      ],
      "min": [
        -0.7231096625328064,
        -0.9999999403953552,
        -1.0,
        -1.0
      ],
      "type": "VEC4"
    },
    {
      "bufferView": 3,
      "byteOffset": 11533632,
      "componentType": 5126,
      "count": 65532,
      "max": [
        0.9843137264251709,
        0.929411768913269,
        0.8235294222831726,
        1.0
      ],
      "min": [
        0.2823529541492462,
        0.2980392277240753,
        0.1725490242242813,
        1.0
      ],
      "type": "VEC4"
    },
    {
      "bufferView": 1,
      "byteOffset": 2621280,
      "componentType": 5126,
      "count": 65532,
      "max": [
        0.988273024559021,
        0.5268549919128418
      ],
      "min": [
        0.0004879999905824661,
        0.00035600000410340726
      ],
      "type": "VEC2"
    },
    {
      "bufferView": 0,
      "byteOffset": 6652944,
      "componentType": 5125,
      "count": 335262,
      "type": "SCALAR"
    },
    {
      "bufferView": 2,
      "byteOffset": 9436608,
      "componentType": 5126,
      "count": 65532,
      "max": [
        -0.01668715476989746,
        12.002408981323242,
        15.232535362243652
      ],
      "min": [
        -11.884598731994629,
        -12.99553394317627,
        2.616588592529297
      ],
      "type": "VEC3"
    },
    {
      "bufferView": 2,
      "byteOffset": 10222992,
      "componentType": 5126,
      "count": 65532,
      "max": [
        0.9985300898551941,
        0.9999438524246216,
        0.9999994039535522
      ],
      "min": [
        -0.9959916472434998,
        -0.9999939799308777,
        -0.7885560989379883
      ],
      "type": "VEC3"
    },
    {
      "bufferView": 3,
      "byteOffset": 12582144,
      "componentType": 5126,
      "count": 65532,
      "max": [
        0.9354938268661499,
        0.999987781047821,
        1.0,
        1.0
      ],
      "min": [
        -0.8917939066886902,
        -1.0,
        -1.0,
        -1.0
      ],
      "type": "VEC4"
    },
    {
      "bufferView": 3,
      "byteOffset": 13630656,
      "componentType": 5126,
      "count": 65532,
      "max": [
        0.9843137264251709,
        0.8588235378265381,
        0.7372549176216125,
        1.0
      ],
      "min": [
        0.35686275362968445,
        0.27843138575553894,
        0.18039216101169586,
        1.0
      ],
      "type": "VEC4"
    },
    {
      "bufferView": 1,
      "byteOffset": 3145536,
      "componentType": 5126,
      "count": 65532,
      "max": [
        0.9981250166893005,
        0.5256620049476624
      ],
      "min": [
        0.018066000193357468,
        0.0005499999970197678
      ],
      "type": "VEC2"
    },
    {
      "bufferView": 0,
      "byteOffset": 7993992,
      "componentType": 5125,
      "count": 324507,
      "type": "SCALAR"
    },
    {
      "bufferView": 2,
      "byteOffset": 11009376,
      "componentType": 5126,
      "count": 65532,
      "max": [
        -0.03176736831665039,
        11.929492950439453,
        14.967206954956055
      ],
      "min": [
        -12.199316024780273,
        -12.253947257995605,
        0.10782814025878906
      ],
      "type": "VEC3"
    },
    {
      "bufferView": 2,
      "byteOffset": 11795760,
      "componentType": 5126,
      "count": 65532,
      "max": [
        0.9873642921447754,
        0.9998645782470703,
        0.9999932646751404
      ],
      "min": [
        -0.9951477646827698,
        -0.9999350309371948,
        -0.9999980330467224
      ],
      "type": "VEC3"
    },
    {
      "bufferView": 3,
      "byteOffset": 14679168,
      "componentType": 5126,
      "count": 65532,
      "max": [
        0.903130829334259,
        1.0,
        1.0,
        1.0
      ],
      "min": [
        -0.9018262624740601,
        -1.0,
        -1.0,
        -1.0
      ],
      "type": "VEC4"
    },
    {
      "bufferView": 3,
      "byteOffset": 15727680,
      "componentType": 5126,
      "count": 65532,
      "max": [
        0.9686274528503418,
        0.8588235378265381,
        0.7450980544090271,
        1.0
      ],
      "min": [
        0.32156863808631897,
        0.2705882489681244,
        0.1882352977991104,
        1.0
      ],
      "type": "VEC4"
    },
    {
      "bufferView": 1,
      "byteOffset": 3669792,
      "componentType": 5126,
      "count": 65532,
      "max": [
        0.9994059801101685,
        0.49690499901771545
      ],
      "min": [
        0.0004879999905824661,
        0.0005130000063218176
      ],
      "type": "VEC2"
    },
    {
      "bufferView": 0,
      "byteOffset": 9292020,
      "componentType": 5125,
      "count": 311433,
      "type": "SCALAR"
    },
    {
      "bufferView": 2,
      "byteOffset": 12582144,
      "componentType": 5126,
      "count": 65532,
      "max": [
        -0.0040950775146484375,
        12.000755310058594,
        14.938332557678223
      ],
      "min": [
        -12.246713638305664,
        -9.539185523986816,
        0.11191940307617188
      ],
      "type": "VEC3"
    },
    {
      "bufferView": 2,
      "byteOffset": 13368528,
      "componentType": 5126,
      "count": 65532,
      "max": [
        0.9999644756317139,
        0.9993553161621094,
        0.9999971389770508
      ],
      "min": [
        -0.9999384880065918,
        -0.9994138479232788,
        -0.9999817609786987
      ],
      "type": "VEC3"
    },
    {
      "bufferView": 3,
      "byteOffset": 16776192,
      "componentType": 5126,
      "count": 65532,
      "max": [
        0.8995890617370605,
        1.0,
        1.0,
        1.0
      ],
      "min": [
        -0.8300225138664246,
        -1.0,
        -1.0,
        -1.0
      ],
      "type": "VEC4"
    },
    {
      "bufferView": 3,
      "byteOffset": 17824704,
      "componentType": 5126,
      "count": 65532,
      "max": [
        0.9647058844566345,
        0.8549019694328308,
        0.7372549176216125,
        1.0
      ],
      "min": [
        0.3490196168422699,
        0.2705882489681244,
        0.18039216101169586,
        1.0
      ],
      "type": "VEC4"
    },
    {
      "bufferView": 1,
      "byteOffset": 4194048,
      "componentType": 5126,
      "count": 65532,
      "max": [
        0.9987019896507263,
        0.5288079977035522
      ],
      "min": [
        0.0004879999905824661,
        0.0005189999938011169
      ],
      "type": "VEC2"
    },
    {
      "bufferView": 0,
      "byteOffset": 10537752,
      "componentType": 5125,
      "count": 319710,
      "type": "SCALAR"
    },
    {
      "bufferView": 2,
      "byteOffset": 14154912,
      "componentType": 5126,
      "count": 13364,
      "max": [
        -6.570535659790039,
        1.4959440231323242,
        14.826641082763672
      ],
      "min": [
        -12.246713638305664,
        -8.968061447143555,
        5.36338996887207
      ],
      "type": "VEC3"
    },
    {
      "bufferView": 2,
      "byteOffset": 14315280,
      "componentType": 5126,
      "count": 13364,
      "max": [
        0.9999824166297913,
        0.8104576468467712,
        0.9999812245368958
      ],
      "min": [
        -0.9999995231628418,
        -0.6953946352005005,
        -0.4769500195980072
      ],
      "type": "VEC3"
    },
    {
      "bufferView": 3,
      "byteOffset": 18873216,
      "componentType": 5126,
      "count": 13364,
      "max": [
        0.713822603225708,
        1.0,
        0.989122748374939,
        1.0
      ],
      "min": [
        -0.7476602792739868,
        -1.0,
        -0.4458238184452057,
        -1.0
      ],
      "type": "VEC4"
    },
    {
      "bufferView": 3,
      "byteOffset": 19087040,
      "componentType": 5126,
      "count": 13364,
      "max": [
        0.9333333373069763,
        0.8196078538894653,
        0.7372549176216125,
        1.0
      ],
      "min": [
        0.45098039507865906,
        0.33725491166114807,
        0.18039216101169586,
        1.0
      ],
      "type": "VEC4"
    },
    {
      "bufferView": 1,
      "byteOffset": 4718304,
      "componentType": 5126,
      "count": 13364,
      "max": [
        0.9893659949302673,
        0.48572900891304016
      ],
      "min": [
        0.0005619999719783664,
        0.0007830000249668956
      ],
      "type": "VEC2"
    },
    {
      "bufferView": 0,
      "byteOffset": 11816592,
      "componentType": 5125,
      "count": 45630,
      "type": "SCALAR"
    }
  ],
  "asset": {
    "extras": {
      "author": "srj.trfmchk (https://sketchfab.com/srj.trfmchk)",
      "license": "COPYRIGHT TO srj.trfmchk",
      "source": "https://sketchfab.com/3d-models/small-molded-pot-b3f6f3d6030e45d08d5c63badbc95866",
      "title": "Small molded pot"
    },
    "generator": "Sketchfab-17.8.0",
    "version": "2.0"
  },
  "bufferViews": [
    {
      "buffer": 0,
      "byteLength": 11999112,
      "name": "floatBufferViews",
      "target": 34963
    },
    {
      "buffer": 0,
      "byteLength": 4825216,
      "byteOffset": 11999112,
      "byteStride": 8,
      "name": "floatBufferViews",
      "target": 34962
    },
    {
      "buffer": 0,
      "byteLength": 14475648,
      "byteOffset": 16824328,
      "byteStride": 12,
      "name": "floatBufferViews",
      "target": 34962
    },
    {
      "buffer": 0,
      "byteLength": 19300864,
      "byteOffset": 31299976,
      "byteStride": 16,
      "name": "floatBufferViews",
      "target": 34962
    }
  ],
  "buffers": [
    {
      "byteLength": 50600840,
      "uri": "scene.bin"
    }
  ],
  "images": [
    {
      "uri": "textures/Pottery_baseColor.png"
    },
    {
      "uri": "textures/Pottery_normal.png"
    }
  ],
  "materials": [
    {
      "doubleSided": true,
      "name": "Pottery",
      "normalTexture": {
        "index": 1
      },
      "pbrMetallicRoughness": {
        "baseColorTexture": {
          "index": 0
        },
        "metallicFactor": 0.0
      }
    }
  ],
  "meshes": [
    {
      "name": "Object_0",
      "primitives": [
        {
          "attributes": {
            "COLOR_0": 3,
            "NORMAL": 1,
            "POSITION": 0,
            "TANGENT": 2,
            "TEXCOORD_0": 4
          },
          "indices": 5,
          "material": 0,
          "mode": 4
        }
      ]
    },
    {
      "name": "Object_1",
      "primitives": [
        {
          "attributes": {
            "COLOR_0": 9,
            "NORMAL": 7,
            "POSITION": 6,
            "TANGENT": 8,
            "TEXCOORD_0": 10
          },
          "indices": 11,
          "material": 0,
          "mode": 4
        }
      ]
    },
    {
      "name": "Object_2",
      "primitives": [
        {
          "attributes": {
            "COLOR_0": 15,
            "NORMAL": 13,
            "POSITION": 12,
            "TANGENT": 14,
            "TEXCOORD_0": 16
          },
          "indices": 17,
          "material": 0,
          "mode": 4
        }
      ]
    },
    {
      "name": "Object_3",
      "primitives": [
        {
          "attributes": {
            "COLOR_0": 21,
            "NORMAL": 19,
            "POSITION": 18,
            "TANGENT": 20,
            "TEXCOORD_0": 22
          },
          "indices": 23,
          "material": 0,
          "mode": 4
        }
      ]
    },
    {
      "name": "Object_4",
      "primitives": [
        {
          "attributes": {
            "COLOR_0": 27,
            "NORMAL": 25,
            "POSITION": 24,
            "TANGENT": 26,
            "TEXCOORD_0": 28
          },
          "indices": 29,
          "material": 0,
          "mode": 4
        }
      ]
    },
    {
      "name": "Object_5",
      "primitives": [
        {
          "attributes": {
            "COLOR_0": 33,
            "NORMAL": 31,
            "POSITION": 30,
            "TANGENT": 32,
            "TEXCOORD_0": 34
          },
          "indices": 35,
          "material": 0,
          "mode": 4
        }
      ]
    },
    {
      "name": "Object_6",
      "primitives": [
        {
          "attributes": {
            "COLOR_0": 39,
            "NORMAL": 37,
            "POSITION": 36,
            "TANGENT": 38,
            "TEXCOORD_0": 40
          },
          "indices": 41,
          "material": 0,
          "mode": 4
        }
      ]
    },
    {
      "name": "Object_7",
      "primitives": [
        {
          "attributes": {
            "COLOR_0": 45,
            "NORMAL": 43,
            "POSITION": 42,
            "TANGENT": 44,
            "TEXCOORD_0": 46
          },
          "indices": 47,
          "material": 0,
          "mode": 4
        }
      ]
    },
    {
      "name": "Object_8",
      "primitives": [
        {
          "attributes": {
            "COLOR_0": 51,
            "NORMAL": 49,
            "POSITION": 48,
            "TANGENT": 50,
            "TEXCOORD_0": 52
          },
          "indices": 53,
          "material": 0,
          "mode": 4
        }
      ]
    },
    {
      "name": "Object_9",
      "primitives": [
        {
          "attributes": {
            "COLOR_0": 57,
            "NORMAL": 55,
            "POSITION": 54,
            "TANGENT": 56,
            "TEXCOORD_0": 58
          },
          "indices": 59,
          "material": 0,
          "mode": 4
        }
      ]
    }
  ],
  "nodes": [
    {
      "children": [
        1
      ],
      "matrix": [
        0.004347825888544321,
        0.0,
        0.0,
        0.0,
        0.0,
        9.65411281704647e-19,
        -0.004347825888544321,
        0.0,
        0.0,
        0.004347825888544321,
        9.65411281704647e-19,
        0.0,
        0.0,
        0.0,
        0.0,
        1.0
      ],
      "name": "Sketchfab_model"
    },
    {
      "children": [
        2,
        3,
        4,
        5,
        6,
        7,
        8,
        9,
        10,
        11
      ],
      "name": "Pottery.obj.cleaner.materialmerger.gles"
    },
    {
      "mesh": 0,
      "name": "Object_2"
    },
    {
      "mesh": 1,
      "name": "Object_3"
    },
    {
      "mesh": 2,
      "name": "Object_4"
    },
    {
      "mesh": 3,
      "name": "Object_5"
    },
    {
      "mesh": 4,
      "name": "Object_6"
    },
    {
      "mesh": 5,
      "name": "Object_7"
    },
    {
      "mesh": 6,
      "name": "Object_8"
    },
    {
      "mesh": 7,
      "name": "Object_9"
    },
    {
      "mesh": 8,
      "name": "Object_10"
    },
    {
      "mesh": 9,
      "name": "Object_11"
    }
  ],
  "samplers": [
    {
      "magFilter": 9729,
      "minFilter": 9987,
      "wrapS": 10497,
      "wrapT": 10497
    }
  ],
  "scene": 0,
  "scenes": [
    {
      "name": "Sketchfab_Scene",
      "nodes": [
        0
      ]
    }
  ],
  "textures": [
    {
      "sampler": 0,
      "source": 0
    },
    {
      "sampler": 0,
      "source": 1
    }
  ]
}
